<svg xmlns="http://www.w3.org/2000/svg" width="512.003" height="448.021" viewBox="0 0 512.003 448.021">
  <g id="gallery-icon" transform="translate(0 -31.991)">
    <g id="Group_2" data-name="Group 2">
      <g id="Group_1" data-name="Group 1">
        <path id="Path_1" data-name="Path 1" d="M373.333,31.991H10.667A10.67,10.67,0,0,0,0,42.657v320a10.55,10.55,0,0,0,1.2,4.693c.064.128.021.277.107.427.149.256.448.384.6.619a10.728,10.728,0,0,0,2.731,2.816,9.327,9.327,0,0,0,1.109.747,10.214,10.214,0,0,0,4.928,1.365H373.334a10.421,10.421,0,0,0,4.736-1.237,12.593,12.593,0,0,0,1.109-.747,10,10,0,0,0,2.6-2.5c.171-.235.469-.341.619-.6.107-.192.085-.4.192-.6a10.347,10.347,0,0,0,1.152-3.712c.043-.363.192-.661.213-1.024,0-.085.043-.171.043-.256v-320a10.672,10.672,0,0,0-10.665-10.657ZM362.667,317.473l-97.131-194.24a10.674,10.674,0,0,0-9.259-5.888,10.421,10.421,0,0,0-9.557,5.376l-78.4,137.216L114.2,205.772a10.65,10.65,0,0,0-16.49,1.792L21.333,326.348V53.324H362.666V317.473Z" fill="#e60707"/>
      </g>
    </g>
    <g id="Group_4" data-name="Group 4">
      <g id="Group_3" data-name="Group 3">
        <circle id="Ellipse_1" data-name="Ellipse 1" cx="53.333" cy="53.333" r="53.333" transform="translate(64 74.658)" fill="#e60707"/>
      </g>
    </g>
    <g id="Group_6" data-name="Group 6">
      <g id="Group_5" data-name="Group 5">
        <path id="Path_2" data-name="Path 2" d="M399.744,393.655a10.72,10.72,0,0,0-12.5-2.347,31.656,31.656,0,0,1-13.909,3.349H236.8a10.681,10.681,0,0,0-5.184,20.011l115.2,64a10.544,10.544,0,0,0,5.163,1.344,10.723,10.723,0,0,0,9.237-5.291l39.915-68.437A10.687,10.687,0,0,0,399.744,393.655Z" fill="#e60707"/>
      </g>
    </g>
    <g id="Group_8" data-name="Group 8">
      <g id="Group_7" data-name="Group 7">
        <path id="Path_3" data-name="Path 3" d="M507.243,204.449l-85.333-56.9a10.659,10.659,0,0,0-16.576,8.875V359.585a10.66,10.66,0,0,0,7.893,10.3,10.318,10.318,0,0,0,2.773.363,10.671,10.671,0,0,0,9.216-5.291l85.333-146.283a10.63,10.63,0,0,0-3.306-14.225Z" fill="#e60707"/>
      </g>
    </g>
  </g>
</svg>
