<svg viewBox="0 0 512 512" xmlns="http://www.w3.org/2000/svg" xmlns:xlink="http://www.w3.org/1999/xlink"><linearGradient id="a" gradientTransform="matrix(1 0 0 -1 0 -9462)" gradientUnits="userSpaceOnUse" x1="0" x2="512" y1="-9718" y2="-9718"><stop offset="0" stop-color="#00f1ff"/><stop offset=".231" stop-color="#00d8ff"/><stop offset=".5138" stop-color="#00c0ff"/><stop offset=".7773" stop-color="#00b2ff"/><stop offset="1" stop-color="#00adff"/></linearGradient><path d="m512 256c0 141.386719-114.613281 256-256 256s-256-114.613281-256-256 114.613281-256 256-256 256 114.613281 256 256zm0 0" fill="url(#a)"/><g fill="#fff"><path d="m408.5 268.140625h-35.402344v-112.945313c0-8.285156-6.714844-15-15-15s-15 6.714844-15 15v112.945313h-21.046875v-112.945313c0-8.285156-6.71875-15-15-15-8.285156 0-15 6.714844-15 15v112.945313h-21.695312v-112.945313c0-8.285156-6.71875-15-15-15-8.285157 0-15 6.714844-15 15v112.945313h-19.757813v-112.945313c0-8.285156-6.714844-15-15-15s-15 6.714844-15 15v112.945313h-19.757812v-112.945313c0-8.285156-6.714844-15-15-15-8.28125 0-15 6.714844-15 15v112.945313h-37.339844c-8.285156 0-15 6.714844-15 15s6.714844 15 15 15h305c8.285156 0 15-6.714844 15-15s-6.714844-15-15-15zm0 0"/><path d="m155.195312 393.5h-36.695312v-36.695312c0-8.285157-6.714844-15-15-15s-15 6.714843-15 15v51.695312c0 8.285156 6.714844 15 15 15h51.695312c8.285157 0 15-6.714844 15-15s-6.714843-15-15-15zm0 0"/><path d="m408.5 341.804688c-8.285156 0-15 6.714843-15 15v36.695312h-36.695312c-8.285157 0-15 6.714844-15 15s6.714843 15 15 15h51.695312c8.285156 0 15-6.714844 15-15v-51.695312c0-8.285157-6.714844-15-15-15zm0 0"/><path d="m103.5 170.195312c8.285156 0 15-6.714843 15-15v-36.695312h36.695312c8.285157 0 15-6.714844 15-15s-6.714843-15-15-15h-51.695312c-8.285156 0-15 6.714844-15 15v51.695312c0 8.285157 6.714844 15 15 15zm0 0"/><path d="m408.5 88.5h-51.695312c-8.285157 0-15 6.714844-15 15s6.714843 15 15 15h36.695312v36.695312c0 8.285157 6.714844 15 15 15s15-6.714843 15-15v-51.695312c0-8.285156-6.714844-15-15-15zm0 0"/><path d="m358.097656 365.988281c8.285156 0 15-6.714843 15-15v-22.617187c0-8.28125-6.714844-15-15-15s-15 6.71875-15 15v22.617187c0 8.285157 6.714844 15 15 15zm0 0"/><path d="m307.050781 313.371094c-8.285156 0-15 6.71875-15 15v22.617187c0 8.285157 6.714844 15 15 15 8.28125 0 15-6.714843 15-15v-22.617187c0-8.28125-6.71875-15-15-15zm0 0"/><path d="m205.597656 313.371094c-8.285156 0-15 6.71875-15 15v22.617187c0 8.285157 6.714844 15 15 15s15-6.714843 15-15v-22.617187c0-8.28125-6.714844-15-15-15zm0 0"/><path d="m155.839844 313.371094c-8.28125 0-15 6.71875-15 15v22.617187c0 8.285157 6.71875 15 15 15 8.285156 0 15-6.714843 15-15v-22.617187c0-8.28125-6.714844-15-15-15zm0 0"/><path d="m255.355469 313.371094c-8.285157 0-15 6.71875-15 15v54.929687c0 8.28125 6.714843 15 15 15 8.28125 0 15-6.71875 15-15v-54.929687c0-8.28125-6.71875-15-15-15zm0 0"/></g></svg>