<svg id="Capa_1" enable-background="new 0 0 511 511" height="512" viewBox="0 0 511 511" width="512" xmlns="http://www.w3.org/2000/svg"><g><path d="m471.5 447h-432c-8.284 0-15-6.716-15-15v-178c0-24.813 20.187-45 45-45h372c24.813 0 45 20.187 45 45v178c0 8.284-6.716 15-15 15z" fill="#ffd4a1"/><path d="m441.5 209h-186v238h216c8.284 0 15-6.716 15-15v-178c0-24.813-20.187-45-45-45z" fill="#ffad84"/><path d="m495.5 511h-480c-8.284 0-15-6.716-15-15v-64c0-8.284 6.716-15 15-15h480c8.284 0 15 6.716 15 15v64c0 8.284-6.716 15-15 15z" fill="#d6f9fa"/><path d="m495.5 417h-240v94h240c8.284 0 15-6.716 15-15v-64c0-8.284-6.716-15-15-15z" fill="#adf2f5"/><path d="m255.5 151c-8.284 0-15-6.716-15-15v-48c0-8.284 6.716-15 15-15s15 6.716 15 15v48c0 8.284-6.716 15-15 15z" fill="#d6f9fa"/><path d="m270.5 136v-48c0-8.284-6.716-15-15-15v78c8.284 0 15-6.716 15-15z" fill="#adf2f5"/><path d="m287.5 239h-64c-8.284 0-15-6.716-15-15v-88c0-8.284 6.716-15 15-15h64c8.284 0 15 6.716 15 15v88c0 8.284-6.716 15-15 15z" fill="#d6f9fa"/><path d="m287.5 121h-32v118h32c8.284 0 15-6.716 15-15v-88c0-8.284-6.716-15-15-15z" fill="#adf2f5"/><path d="m255.5 103c-51.166 0-59.496-49.885-33.271-75.387l22.537-23.09c5.877-6.022 15.574-6.032 21.462-.007l23.157 23.694c25.458 25.667 16.917 74.79-33.885 74.79z" fill="#fef77d"/><path d="m289.385 28.209-23.157-23.693c-2.823-2.888-6.69-4.516-10.728-4.516v103c50.797 0 59.301-49.166 33.885-74.791z" fill="#f4de48"/><path d="m447.5 335c-21.59 0-40.52-18.306-42.606-20.394-3.819-3.76-14.133-11.606-21.394-11.606s-17.575 7.846-21.433 11.646c-2.047 2.048-20.977 20.354-42.567 20.354s-40.52-18.306-42.606-20.394c-3.819-3.76-14.133-11.606-21.394-11.606s-17.575 7.846-21.433 11.646c-2.047 2.048-20.977 20.354-42.567 20.354s-40.52-18.306-42.606-20.394c-3.819-3.76-14.133-11.606-21.394-11.606s-17.575 7.846-21.433 11.646c-2.047 2.048-20.977 20.354-42.567 20.354-10.438 0-21.453-4.101-32.737-12.188-3.931-2.817-6.263-7.356-6.263-12.192v-56.62c0-24.813 20.187-45 45-45h372c24.813 0 45 20.187 45 45v56.62c0 4.836-2.332 9.375-6.263 12.192-11.284 8.087-22.299 12.188-32.737 12.188zm24-24.38h.01z" fill="#ff6888"/><path d="m441.5 209h-186v94c7.261 0 17.575 7.846 21.394 11.606 2.086 2.088 21.016 20.394 42.606 20.394s40.52-18.306 42.567-20.354c3.857-3.8 14.172-11.646 21.433-11.646s17.575 7.846 21.394 11.606c2.086 2.088 21.016 20.394 42.606 20.394 10.438 0 21.453-4.101 32.737-12.188 3.931-2.817 6.263-7.356 6.263-12.192v-56.62c0-24.813-20.187-45-45-45z" fill="#ff515e"/></g></svg>