<svg id="book_1_" data-name="book (1)" xmlns="http://www.w3.org/2000/svg" width="15" height="15" viewBox="0 0 15 15">
  <path id="Path_1" data-name="Path 1" d="M237.893,13.065V0l-.409.042a13.453,13.453,0,0,0-4.765,1.417L232,1.823V14.836l.524-.266a13.992,13.992,0,0,1,4.929-1.462Zm0,0" transform="translate(-224.232)" fill="#fff"/>
  <path id="Path_2" data-name="Path 2" d="M270.78,47.3h-.8V58.731a.308.308,0,0,1-.246.327l-.686.069q-.3.03-.592.074c-.064.009-.127.022-.191.033-.133.022-.265.043-.4.069-.077.015-.153.033-.23.049-.118.025-.236.05-.354.079-.08.02-.161.042-.243.063-.112.029-.224.059-.336.091-.084.024-.167.05-.25.076-.108.033-.216.068-.324.1-.084.028-.168.058-.251.088-.107.039-.213.078-.318.119l-.248.1q-.159.065-.316.135l-.243.109-.11.053h6.139Zm0,0" transform="translate(-255.78 -45.365)" fill="#fff"/>
  <path id="Path_3" data-name="Path 3" d="M40.409.042,40,0V13.066l.475.049a13.905,13.905,0,0,1,4.923,1.47l.494.251V1.823l-.719-.364A13.452,13.452,0,0,0,40.409.042Zm0,0" transform="translate(-38.661)" fill="#fff"/>
  <path id="Path_4" data-name="Path 4" d="M0,47.3V60.365H6.144l-.1-.048c-.077-.036-.154-.07-.231-.1-.109-.048-.218-.1-.327-.14l-.238-.1q-.163-.065-.327-.123L4.68,59.77c-.11-.037-.221-.072-.331-.107-.08-.025-.161-.05-.243-.074-.112-.033-.225-.063-.338-.092-.08-.021-.161-.043-.241-.062-.117-.028-.234-.053-.351-.078l-.231-.049c-.129-.025-.259-.046-.389-.068-.066-.011-.131-.023-.2-.033q-.295-.044-.589-.074l-.721-.074A.309.309,0,0,1,.8,58.731V47.3Zm0,0" transform="translate(0 -45.365)" fill="#fff"/>
</svg>
