<svg xmlns="http://www.w3.org/2000/svg" width="299.997" height="300.001" viewBox="0 0 299.997 300.001">
  <g id="data-not-found" transform="translate(334 -246.9)">
    <path id="path4" d="M-288.8,306.118-274.671,292l105.1,105.015L-183.7,411.133Z" transform="translate(66.843 66.603)" fill="#424242"/>
    <path id="path6" d="M-230.5,336.272l-14.129,14.118a9.863,9.863,0,0,0-2.975,7.059,9.863,9.863,0,0,0,2.975,7.059l49.081,49.04a19.911,19.911,0,0,0,28.011,0,19.871,19.871,0,0,0,0-27.988l-49.081-49.288a9.589,9.589,0,0,0-6.941-2.973,9.589,9.589,0,0,0-6.941,2.973Z" transform="translate(127.771 127.594)" fill="#07215e"/>
    <path id="circle8" d="M118.984,0A118.885,118.885,0,1,1,0,118.885,118.885,118.885,0,0,1,118.984,0Z" transform="translate(-334 246.9)" fill="#07215e"/>
    <ellipse id="circle10" cx="89.238" cy="89.164" rx="89.238" ry="89.164" transform="translate(-304.254 276.621)" fill="#fff"/>
    <path id="circle12" d="M12.394,0A12.384,12.384,0,1,1,0,12.384,12.384,12.384,0,0,1,12.394,0Z" transform="translate(-272.029 343.494)" fill="#424242"/>
    <path id="circle14" d="M12.394,0A12.384,12.384,0,1,1,0,12.384,12.384,12.384,0,0,1,12.394,0Z" transform="translate(-182.792 343.494)" fill="#424242"/>
    <path id="path16" d="M-244.22,330.621a5.017,5.017,0,0,0,3.773-1.724,5.017,5.017,0,0,0,1.185-3.976,30.008,30.008,0,0,0-29.25-24.025,30.008,30.008,0,0,0-29.25,24.025,5.017,5.017,0,0,0,1.185,3.976,5.017,5.017,0,0,0,3.773,1.724Z" transform="translate(53.496 79.746)" fill="#424242"/>
  </g>
</svg>
